<?xml version="1.0" encoding="utf-8"?><svg version="1.1" id="Layer_1" xmlns="http://www.w3.org/2000/svg" xmlns:xlink="http://www.w3.org/1999/xlink" x="0px" y="0px" viewBox="0 0 120.46 122.88" style="enable-background:new 0 0 120.46 122.88" xml:space="preserve"><style type="text/css">.st0{fill-rule:evenodd;clip-rule:evenodd;}</style><g><path class="st0" d="M17.2,0h62.29c4.73,0,9.03,1.93,12.15,5.05c3.12,3.12,5.05,7.42,5.05,12.15v38.35c0,4.73-1.93,9.03-5.05,12.15 c-3.12,3.12-7.42,5.05-12.15,5.05H46.92L20.81,95.2c-1.21,1.04-3.04,0.9-4.08-0.32c-0.51-0.6-0.74-1.34-0.69-2.07l1.39-20.07H17.2 c-4.73,0-9.03-1.93-12.15-5.05C1.93,64.58,0,60.28,0,55.55V17.2c0-4.73,1.93-9.03,5.05-12.15C8.16,1.93,12.46,0,17.2,0L17.2,0 L17.2,0z M63.12,29.37c4.48,0,8.11,3.63,8.11,8.11c0,4.48-3.63,8.11-8.11,8.11c-4.48,0-8.11-3.63-8.11-8.11 C55.01,33,58.64,29.37,63.12,29.37L63.12,29.37z M33.69,29.37c4.48,0,8.11,3.63,8.11,8.11c0,4.48-3.63,8.11-8.11,8.11 s-8.11-3.63-8.11-8.11C25.58,33,29.21,29.37,33.69,29.37L33.69,29.37z M106.79,27.98c3.37,0.65,6.39,2.31,8.73,4.65 c3.05,3.05,4.95,7.26,4.95,11.9v38.35c0,4.64-1.89,8.85-4.95,11.9c-3.05,3.05-7.26,4.95-11.9,4.95h-0.61l1.42,20.44l0,0 c0.04,0.64-0.15,1.3-0.6,1.82c-0.91,1.07-2.52,1.19-3.58,0.28l-26.21-23.2H39.49l17.01-17.3h36.04c7.86,0,14.3-6.43,14.3-14.3 V29.11C106.83,28.73,106.82,28.35,106.79,27.98L106.79,27.98L106.79,27.98z M79.48,5.8H17.2c-3.13,0-5.98,1.28-8.05,3.35 C7.08,11.22,5.8,14.06,5.8,17.2v38.35c0,3.13,1.28,5.98,3.35,8.05c2.07,2.07,4.92,3.35,8.05,3.35h3.34v0.01l0.19,0.01 c1.59,0.11,2.8,1.49,2.69,3.08l-1.13,16.26l21.54-18.52c0.52-0.52,1.24-0.84,2.04-0.84h33.61c3.13,0,5.98-1.28,8.05-3.35 c2.07-2.07,3.35-4.92,3.35-8.05V17.2c0-3.13-1.28-5.98-3.35-8.05C85.46,7.08,82.61,5.8,79.48,5.8L79.48,5.8L79.48,5.8z"/></g></svg>
