<svg width="294" height="39" viewBox="0 0 294 39" fill="none" xmlns="http://www.w3.org/2000/svg">
<g clip-path="url(#clip0_20_940)">
<path d="M10.8304 22.9173C12.8608 20.8919 14.0022 18.1419 14.0022 15.2779C14.0022 12.4138 12.8598 9.66383 10.8304 7.63845L3.17183 0C1.14237 2.02538 0 4.77538 0 7.63943C0 10.5035 1.14237 13.2535 3.17183 15.2789L10.8294 22.9173H10.8304Z" fill="#7FC8FF"/>
<path d="M26.8551 23.6242C24.8257 21.5998 22.0678 20.4603 19.1976 20.4603C16.3274 20.4603 13.5695 21.5998 11.5391 23.6242L19.1976 31.2636C21.2271 33.288 23.9849 34.4275 26.8561 34.4275C29.7273 34.4275 32.4842 33.288 34.5147 31.2636L26.8561 23.6242H26.8551Z" fill="#7FC8FF"/>
<path d="M3.19064 31.2459C5.22109 33.2703 7.97796 34.4098 10.8492 34.4098V23.6065H0.0178223C0.0188079 26.4705 1.16019 29.2205 3.19064 31.2459Z" fill="#7FC8FF"/>
<path d="M29.8122 12.3293C27.7817 10.3049 25.0249 9.16444 22.1527 9.16542C19.2815 9.16542 16.5246 10.3049 14.4941 12.3303L22.1527 19.9698L29.8122 12.3293Z" fill="#7FC8FF"/>
</g>
<g clip-path="url(#clip1_20_940)">
<path d="M194.249 16.0183H194.214C193.562 14.5019 191.677 12.8753 188.562 12.8753C183.492 12.8753 179.869 16.4162 179.869 22.3417C179.869 28.2673 183.527 31.8807 188.597 31.8807C191.82 31.8807 193.486 30.2918 194.211 28.5227H194.246V30.7623C194.246 33.9428 192.615 35.4592 189.683 35.4592C187.219 35.4592 185.591 34.5908 185.157 32.569H180.594C181.101 36.255 184.508 39 189.758 39C194.721 39 199.138 36.505 199.138 30.1116V13.3808H194.252V16.0183H194.249ZM189.61 28.2323C186.241 28.2323 184.537 25.4497 184.537 22.3794C184.537 19.309 186.276 16.564 189.61 16.564C192.944 16.564 194.68 19.7069 194.68 22.3794C194.68 25.0518 193.303 28.2323 189.61 28.2323Z" fill="#FFFFFF"/>
<path d="M158.169 20.7556C158.169 16.1662 155.996 12.8055 150.126 12.8055C145.199 12.8055 142.633 16.0264 142.088 19.094H146.471C146.943 17.3599 148.32 16.2764 150.166 16.2764C152.301 16.2764 153.606 17.1422 153.606 18.6236C153.606 20.2125 152.447 20.5754 150.021 20.9357C147.412 21.3309 141.256 21.8364 141.256 26.9688C141.256 30.1117 143.719 32.5691 147.811 32.5691C151.36 32.5691 152.918 30.6898 153.678 29.2111H153.716V30.1494C153.716 30.7624 153.754 31.4506 153.862 32.0636H158.533C158.277 30.8699 158.172 28.9556 158.172 27.5119V20.7556H158.169ZM153.678 23.3957C153.678 27.7324 151.471 29.1385 149.08 29.1385C146.981 29.1385 145.892 28.1625 145.892 26.7537C145.892 25.3449 147.016 24.5868 149.514 24.0786C152.266 23.5382 153.245 22.7075 153.678 21.8041V23.393V23.3957Z" fill="#FFFFFF"/>
<path d="M171.282 12.878C168.384 12.878 166.721 14.4293 165.667 16.599V13.3835H161.104V32.0635H165.775V23.6806C165.775 19.1289 167.479 16.9243 169.977 16.9243C172.659 16.9243 173.382 19.0563 173.382 21.7664V32.0635H178.018V20.6453C178.018 16.0586 176.134 12.878 171.279 12.878H171.282Z" fill="#FFFFFF"/>
<path d="M214.801 9.91525C218.313 9.91525 220.704 11.324 222.081 14.3594H226.863C225.27 9.08448 221.283 5.79639 214.801 5.79639C206.941 5.79639 201.615 11.3644 201.615 19.2015C201.615 27.0386 206.904 32.534 214.763 32.5313C221.175 32.5313 225.558 29.1007 226.863 23.9683H222.046C220.995 26.7133 218.75 28.4125 214.801 28.4125C209.801 28.4125 206.47 24.5114 206.47 19.2015C206.47 13.8916 209.766 9.91793 214.801 9.91793V9.91525Z" fill="#FFFFFF"/>
<path d="M286.484 12.878C283.586 12.878 281.923 14.4293 280.869 16.5989V13.3834H276.306V32.0635H280.977V23.6806C280.977 19.1289 282.68 16.9243 285.179 16.9243C287.858 16.9243 288.583 19.0563 288.583 21.7663V32.0635H293.219V20.6452C293.219 16.0585 291.335 12.878 286.481 12.878H286.484Z" fill="#FFFFFF"/>
<path d="M273.155 7.87187H268.339V12.2085H273.155V7.87187Z" fill="#FFFFFF"/>
<path d="M268.411 16.6178V32.0608H273.082V13.3808H271.654C269.861 13.3808 268.411 14.8299 268.411 16.6178Z" fill="#FFFFFF"/>
<path d="M239.684 12.8726C236.787 12.8726 235.124 14.4266 234.07 16.5587V6.26419H229.507V32.0555H234.178V23.6726C234.178 19.1208 235.881 16.9162 238.38 16.9162C241.062 16.9162 241.784 19.0482 241.784 21.7583V32.0555H246.42V20.6372C246.42 16.0505 244.536 12.87 239.682 12.87L239.684 12.8726Z" fill="#FFFFFF"/>
<path d="M265.368 20.7556C265.368 16.1662 263.196 12.8055 257.325 12.8055C252.398 12.8055 249.832 16.0264 249.291 19.094H253.673C254.145 17.3599 255.522 16.2764 257.369 16.2764C259.503 16.2764 260.808 17.1422 260.808 18.6236C260.808 20.2125 259.649 20.5754 257.223 20.9357C254.614 21.3309 248.458 21.8364 248.458 26.9688C248.458 30.1117 250.921 32.5691 255.013 32.5691C258.563 32.5691 260.121 30.6898 260.881 29.2111H260.916V30.1494C260.916 30.7624 260.951 31.4506 261.061 32.0636H265.732C265.479 30.8699 265.371 28.9556 265.371 27.5119V20.7556H265.368ZM260.875 23.3957C260.875 27.7324 258.668 29.1385 256.277 29.1385C254.177 29.1385 253.088 28.1625 253.088 26.7537C253.088 25.3449 254.212 24.5868 256.711 24.0786C259.463 23.5382 260.441 22.7075 260.875 21.8041V23.393V23.3957Z" fill="#FFFFFF"/>
<path d="M127.693 23.4951V6.26419H123V26.7456H124.434C126.234 26.7456 127.693 25.2911 127.693 23.4951Z" fill="#FFFFFF"/>
<path d="M139.795 27.9257H123V32.0634H139.795V27.9257Z" fill="#FFFFFF"/>
</g>
<path d="M65.1123 23.9984C63.8263 29.0709 59.504 32.4644 53.1814 32.4644C45.4298 32.4644 40.2145 27.0347 40.2145 19.2832C40.2145 11.6031 45.4656 6.03059 53.2171 6.03059C59.6112 6.03059 63.5406 9.28123 65.1123 14.4965H60.3971C59.0397 11.496 56.6821 10.1028 53.2171 10.1028C48.2518 10.1028 45.0012 14.0322 45.0012 19.2832C45.0012 24.4271 48.2875 28.3921 53.2171 28.3921C57.1107 28.3921 59.3254 26.7132 60.3614 23.9984H65.1123ZM67.8743 32V6.49497H72.3752V16.6755C73.4111 14.568 75.0543 13.032 77.912 13.032C82.6986 13.032 84.5561 16.1754 84.5561 20.7121V32H79.9838V21.8194C79.9838 19.1403 79.2694 17.0328 76.626 17.0328C74.1612 17.0328 72.4823 19.2118 72.4823 23.7127V32H67.8743ZM87.5205 19.176C88.0563 16.1397 90.5925 12.9605 95.4506 12.9605C101.237 12.9605 103.381 16.2826 103.381 20.8192V27.4991C103.381 28.928 103.488 30.8212 103.738 32H99.1299C99.0227 31.3927 98.987 30.714 98.987 30.1068V29.178H98.9513C98.2011 30.6426 96.6651 32.5001 93.1644 32.5001C89.1279 32.5001 86.6989 30.071 86.6989 26.9633C86.6989 21.8909 92.7715 21.3908 95.3434 20.9978C97.7368 20.6406 98.8798 20.2834 98.8798 18.7117C98.8798 17.2471 97.5939 16.3898 95.4863 16.3898C93.6645 16.3898 92.3071 17.4614 91.8427 19.176H87.5205ZM91.2712 26.749C91.2712 28.0707 92.3428 29.1066 94.4147 29.1066C96.7723 29.1066 98.9513 27.7134 98.9513 23.4269V21.8551C98.5226 22.7482 97.5581 23.5698 94.8433 24.1056C92.3786 24.6057 91.2712 25.3558 91.2712 26.749ZM111.907 25.0701C111.907 27.2133 112.371 28.4279 114.336 28.4279H115.515V32.0714H113.3C108.728 32.1429 107.442 29.4281 107.442 25.713V17.0328H104.477V13.5321H107.442V9.35268L111.907 7.388V13.5321H115.622V17.0328H111.907V25.0701Z" fill="#FFFFFF"/>
<defs>
<clipPath id="clip0_20_940">
<rect width="34.5146" height="34.4276" fill="white"/>
</clipPath>
<clipPath id="clip1_20_940">
<rect width="170.222" height="33.2036" fill="white" transform="translate(123 5.79639)"/>
</clipPath>
</defs>
</svg>
